<svg width="16" height="16" viewBox="0 0 16 16" fill="none" xmlns="http://www.w3.org/2000/svg">
<path d="M7.98902 11.0013C7.75585 11.0017 7.52987 10.9203 7.35033 10.7713L2.36052 6.77125C2.15672 6.60151 2.02855 6.3576 2.00422 6.09318C1.97989 5.82875 2.06139 5.56547 2.23078 5.36125C2.40017 5.15704 2.64359 5.02861 2.90748 5.00423C3.17136 4.97985 3.43411 5.06151 3.63791 5.23125L7.98902 8.71125L12.3401 5.39125C12.4422 5.30819 12.5597 5.24615 12.6858 5.20872C12.8118 5.17129 12.9441 5.1592 13.0748 5.17314C13.2056 5.18708 13.3323 5.22677 13.4477 5.28995C13.5631 5.35312 13.6649 5.43853 13.7473 5.54125C13.8387 5.64407 13.9079 5.7647 13.9506 5.89557C13.9933 6.02645 14.0086 6.16475 13.9954 6.30181C13.9823 6.43887 13.9411 6.57175 13.8744 6.6921C13.8076 6.81246 13.7168 6.91771 13.6075 7.00125L8.61774 10.8313C8.43303 10.9568 8.21167 11.0166 7.98902 11.0013Z" fill="#25304B"/>
</svg>
