<svg width="60" height="63" viewBox="0 0 60 63" fill="none" xmlns="http://www.w3.org/2000/svg">
<mask id="mask0_79_9392" style="mask-type:alpha" maskUnits="userSpaceOnUse" x="0" y="0" width="60" height="60">
<rect width="60" height="60" rx="12" fill="#D9D9D9"/>
</mask>
<g mask="url(#mask0_79_9392)">
<rect x="32.4221" y="47.4712" width="34.1608" height="17.688" rx="8.84401" fill="#F8C702"/>
<rect x="-2.54883" y="-3.97266" width="69.1318" height="51.4438" rx="12" fill="url(#paint0_linear_79_9392)"/>
<rect x="-2.54883" y="21.4116" width="17.823" height="43.7475" rx="8.91152" fill="#EC87C9"/>
<g clip-path="url(#clip0_79_9392)">
<circle cx="81.1589" cy="-5.47461" r="163.5" stroke="white" stroke-width="86"/>
<path d="M81.1589 128.544C155.175 128.544 215.177 68.5418 215.177 -5.47462C215.177 -79.491 155.175 -139.493 81.1589 -139.493C7.14253 -139.493 -52.8596 -79.491 -52.8596 -5.47462C-52.8596 68.5418 7.14253 128.544 81.1589 128.544ZM273.461 -5.47462C273.461 100.731 187.365 186.828 81.1589 186.828C-25.0468 186.828 -111.144 100.731 -111.144 -5.47462C-111.144 -111.68 -25.0468 -197.777 81.1589 -197.777C187.365 -197.777 273.461 -111.68 273.461 -5.47462Z" fill="#D2D1D6" stroke="#CAC9CE" stroke-width="8"/>
</g>
<path d="M23.8892 0.0800781C27.4663 0.0800781 30.3662 2.97991 30.3662 6.55704V20.3449C30.3662 26.1052 33.2831 31.4736 38.116 34.608L61.4445 49.7375C63.4547 51.0413 64.0275 53.7277 62.7238 55.738C61.42 57.7482 58.7336 58.3209 56.7233 57.0172L-1.44451 19.2929C-3.45474 17.9891 -4.02747 15.3026 -2.72376 13.2924L-0.896114 10.4743C-0.613367 10.0384 0.00330162 9.89026 0.475053 10.1962C7.71461 14.8914 17.4123 9.76541 17.4123 1.02933C17.4123 0.505073 17.8373 0.0800781 18.3615 0.0800781H23.8892Z" fill="#F0EFF5" stroke="white" stroke-width="10"/>
<path d="M21.7747 2.64148C21.7747 1.45877 22.7334 0.5 23.9161 0.5C25.0988 0.5 26.0576 1.45877 26.0576 2.64148V21.9498C26.0576 23.1325 25.0988 24.0912 23.9161 24.0912C22.7334 24.0912 21.7747 23.1325 21.7747 21.9498V2.64148Z" fill="url(#paint1_linear_79_9392)" stroke="white" stroke-width="13"/>
<path d="M15.2747 39.2328C15.2747 34.4602 19.1436 30.5913 23.9161 30.5913C28.6887 30.5913 32.5576 34.4602 32.5576 39.2328V56.5157C32.5576 61.2883 28.6887 65.1572 23.9161 65.1572C19.1436 65.1572 15.2747 61.2883 15.2747 56.5157V39.2328Z" fill="#EAE9EE"/>
</g>
<g filter="url(#filter0_d_79_9392)">
<path fill-rule="evenodd" clip-rule="evenodd" d="M29.6439 10.0014C31.039 9.99334 31.4319 10.0174 32.1215 10.1618C32.5785 10.25 33.0757 10.3543 33.228 10.3863C33.3804 10.4184 33.7973 10.5467 34.1501 10.6751C34.5029 10.7954 35.1684 11.0761 35.6335 11.2926C36.0985 11.5172 36.8923 11.9663 37.3975 12.3032C38.0951 12.7603 38.5842 13.1693 39.402 13.9954C40.2199 14.8135 40.6449 15.3187 41.1019 16.0085C41.4387 16.5137 41.8797 17.2917 42.0881 17.7328C42.2966 18.1739 42.5853 18.8957 42.7296 19.3368C42.8739 19.778 43.0744 20.5158 43.1786 20.981C43.347 21.7349 43.3711 22.0236 43.3711 23.6677C43.3711 25.3119 43.347 25.6006 43.1786 26.3545C43.0744 26.8197 42.8739 27.5575 42.7296 27.9986C42.5853 28.4397 42.3608 29.0332 42.2245 29.322C42.0962 29.6107 41.8075 30.148 41.591 30.525C41.3665 30.9019 40.9977 31.5355 40.7651 31.9285C40.5326 32.3215 40.26 32.7947 40.1638 32.9711C40.0676 33.1476 39.7067 33.7812 39.362 34.3747C39.0172 34.9682 38.4719 35.9145 38.1432 36.4759C37.8225 37.0454 37.2852 37.9837 36.9485 38.5612C36.6117 39.1467 36.2348 39.7963 36.1226 39.9968C36.0103 40.1973 35.7297 40.6785 35.5132 41.0635C35.2887 41.4485 35.0321 41.8976 34.9439 42.058C34.8477 42.2184 34.4949 42.844 34.1501 43.4375C33.8053 44.0309 33.2601 44.9934 32.9313 45.5628C32.6026 46.1322 32.1295 46.9503 31.889 47.3673C31.6484 47.7844 31.3678 48.2736 31.2716 48.4501C31.1673 48.6265 30.9989 48.9233 30.8947 49.0997C30.7905 49.2842 30.5018 49.7814 30.2613 50.2065C30.0127 50.6315 29.7641 50.9764 29.7 50.9764C29.6278 50.9844 29.3953 50.6636 29.1548 50.2386C28.9222 49.8295 28.6336 49.3323 28.5213 49.1318C28.401 48.9313 28.2327 48.6265 28.1364 48.4501C28.0402 48.2736 27.7676 47.8004 27.5351 47.4074C27.3025 47.0145 26.8295 46.1964 26.4927 45.6029C26.1479 45.0094 25.5947 44.0309 25.2499 43.4375C24.9051 42.844 24.5523 42.2184 24.4561 42.058C24.3679 41.8976 24.1033 41.4485 23.8868 41.0635C23.6623 40.6785 23.3897 40.1973 23.2774 39.9968C23.1651 39.7963 22.8685 39.283 22.6279 38.866C22.3874 38.4489 21.8341 37.4945 21.4011 36.7406C20.9682 35.9867 20.3427 34.904 20.014 34.3346C19.6852 33.7651 19.3324 33.1476 19.2362 32.9711C19.14 32.7947 18.8754 32.3456 18.6589 31.9686C18.4344 31.5917 18.0656 30.9581 17.833 30.5651C17.6005 30.1721 17.3038 29.6107 17.1755 29.322C17.0392 29.0332 16.8147 28.4397 16.6704 27.9986C16.5261 27.5575 16.3256 26.8357 16.2214 26.3946C16.069 25.7369 16.0369 25.3038 16.0049 23.9484C15.9888 22.9379 16.0129 22.1038 16.069 21.783C16.1171 21.4943 16.2134 21.005 16.2855 20.7003C16.3497 20.3955 16.5261 19.778 16.6704 19.3368C16.8147 18.8957 17.1034 18.1739 17.3118 17.7328C17.5203 17.2917 17.9693 16.5137 18.2981 16.0085C18.7391 15.3508 19.1961 14.7974 19.9178 14.0756C20.471 13.5222 21.1927 12.8726 21.5214 12.632C21.8502 12.3914 22.3393 12.0706 22.6039 11.9102C22.8685 11.7498 23.4297 11.453 23.8467 11.2525C24.2636 11.06 24.9292 10.7873 25.3301 10.651C25.723 10.5227 26.4125 10.3382 26.8535 10.242C27.2945 10.1537 27.7275 10.0655 27.8157 10.0495C27.9039 10.0254 28.7218 10.0094 29.6359 10.0014H29.6439ZM28.5053 18.7434C28.2647 18.7995 27.8478 18.9358 27.5832 19.0561C27.3186 19.1764 26.8696 19.4571 26.5889 19.6657C26.3083 19.8822 25.9314 20.2431 25.755 20.4597C25.5867 20.6842 25.322 21.0933 25.1777 21.382C25.0334 21.6707 24.873 22.0477 24.8249 22.2241C24.7768 22.4005 24.7046 22.8016 24.6646 23.1063C24.6004 23.5234 24.6084 23.8522 24.6886 24.3896C24.7447 24.7825 24.8971 25.368 25.0254 25.6728C25.1617 25.9775 25.4102 26.4347 25.5866 26.6753C25.7711 26.9159 26.0918 27.2768 26.3083 27.4773C26.5328 27.6778 26.9979 27.9906 27.3426 28.1751C27.7035 28.3595 28.2407 28.5681 28.5614 28.6322C28.8821 28.7044 29.3953 28.7605 29.708 28.7605C30.0127 28.7605 30.5179 28.7044 30.8306 28.6402C31.1353 28.5761 31.6003 28.4157 31.8489 28.2954C32.1055 28.1751 32.4743 27.9585 32.6748 27.8222C32.8752 27.6858 33.1799 27.4132 33.3643 27.2207C33.5487 27.0362 33.8053 26.7154 33.9416 26.5149C34.0699 26.3144 34.2624 25.9775 34.3586 25.753C34.4548 25.5364 34.5831 25.1194 34.6553 24.8307C34.7194 24.5419 34.7755 24.0206 34.7755 23.6677C34.7755 23.3148 34.7194 22.7855 34.6472 22.4888C34.5751 22.184 34.4067 21.7188 34.2704 21.4461C34.1261 21.1654 33.8615 20.7404 33.677 20.4998C33.4926 20.2592 33.1077 19.8822 32.8271 19.6657C32.5465 19.4491 32.1135 19.1845 31.8729 19.0722C31.6324 18.9599 31.2475 18.8236 31.031 18.7594C30.8065 18.7032 30.3254 18.6391 29.9486 18.615C29.5717 18.599 29.1948 18.599 29.1066 18.623C29.0184 18.6391 28.7458 18.6952 28.5053 18.7434Z" fill="#E74C3C"/>
<path fill-rule="evenodd" clip-rule="evenodd" d="M29.9804 15.1652C30.7742 15.1812 31.2152 15.2454 31.8246 15.3978C32.2656 15.5101 32.9872 15.7827 33.4282 15.9993C33.8692 16.2158 34.4866 16.5848 34.7913 16.8173C35.096 17.0499 35.5691 17.459 35.8337 17.7316C36.0983 18.0043 36.5152 18.5096 36.7558 18.8625C36.9963 19.2074 37.3091 19.7527 37.4454 20.0575C37.5897 20.3623 37.7982 20.9237 37.9024 21.3006C38.0147 21.6776 38.151 22.3593 38.1991 22.8245C38.2712 23.4581 38.2793 23.8671 38.2071 24.4686C38.159 24.9097 38.0547 25.5433 37.9665 25.8721C37.8864 26.2009 37.6378 26.8506 37.4213 27.3158C37.2048 27.7809 36.8039 28.4466 36.5393 28.7995C36.2747 29.1524 35.8257 29.6496 35.545 29.9143C35.2644 30.1709 34.7753 30.5559 34.4706 30.7644C34.1659 30.9729 33.6207 31.2777 33.2679 31.4461C32.9151 31.6146 32.2816 31.8391 31.8647 31.9514C31.1911 32.1359 30.9426 32.1599 29.7399 32.1599C28.7055 32.168 28.2404 32.1359 27.7914 32.0316C27.4787 31.9514 26.9736 31.799 26.6769 31.6867C26.3722 31.5745 25.8991 31.3499 25.6105 31.1975C25.3218 31.0371 24.8247 30.7083 24.4959 30.4597C24.1672 30.203 23.7021 29.786 23.4616 29.5213C23.221 29.2566 22.8682 28.8235 22.6758 28.5589C22.4914 28.2942 22.1707 27.7328 21.9702 27.3158C21.7697 26.8987 21.5372 26.2651 21.441 25.9122C21.3528 25.5593 21.2405 24.9257 21.1924 24.5087C21.1203 23.9232 21.1203 23.5383 21.1924 22.8646C21.2486 22.3753 21.3849 21.6776 21.4971 21.3006C21.6014 20.9237 21.8098 20.3623 21.9542 20.0575C22.0905 19.7527 22.4032 19.2074 22.6437 18.8545C22.8843 18.5096 23.3413 17.9642 23.654 17.6514C23.9667 17.3467 24.504 16.8895 24.8568 16.6489C25.2015 16.4083 25.7789 16.0795 26.1317 15.9191C26.4845 15.7507 27.0457 15.5421 27.3745 15.4539C27.7032 15.3577 28.1923 15.2534 28.4569 15.2133C28.7215 15.1652 29.4031 15.1492 29.9804 15.1652ZM28.497 18.7422C28.2565 18.7983 27.8395 18.9347 27.5749 19.055C27.3103 19.1753 26.8613 19.456 26.5807 19.6645C26.3 19.8811 25.9232 20.2339 25.7468 20.4585C25.5784 20.6751 25.3138 21.0921 25.1695 21.3808C25.0251 21.6696 24.8648 22.0465 24.8167 22.2229C24.7686 22.3994 24.6964 22.8004 24.6563 23.1052C24.5922 23.5222 24.6002 23.851 24.6804 24.3884C24.7365 24.7814 24.8888 25.3669 25.0171 25.6716C25.1534 25.9764 25.402 26.4335 25.5784 26.6741C25.7628 26.9147 26.0835 27.2757 26.3 27.4762C26.5245 27.6767 26.9896 27.9894 27.3344 28.1739C27.6952 28.3584 28.2324 28.5669 28.5612 28.6311C28.8739 28.7032 29.3951 28.7594 29.6998 28.7594C30.0045 28.7594 30.5176 28.7032 30.8223 28.6391C31.127 28.5749 31.5921 28.4145 31.8486 28.2942C32.0972 28.1739 32.466 27.9574 32.6665 27.821C32.867 27.6847 33.1716 27.412 33.3561 27.2195C33.5405 27.035 33.7971 26.7142 33.9334 26.5137C34.0617 26.3132 34.2541 25.9684 34.3503 25.7518C34.4465 25.5273 34.5748 25.1182 34.647 24.8295C34.7111 24.5408 34.7673 24.0195 34.7673 23.6666C34.7673 23.3137 34.7111 22.7844 34.639 22.4796C34.5668 22.1828 34.3984 21.7177 34.2621 21.437C34.1178 21.1643 33.8532 20.7392 33.6688 20.4986C33.4844 20.258 33.0995 19.8811 32.8188 19.6645C32.5382 19.448 32.1052 19.1833 31.8647 19.071C31.6241 18.9587 31.2473 18.8224 31.0228 18.7582C30.8063 18.7021 30.3172 18.6379 29.9403 18.6139C29.5635 18.5978 29.1866 18.5978 29.0984 18.6219C29.0102 18.6379 28.7376 18.6941 28.497 18.7422Z" fill="#C0392B"/>
</g>
<defs>
<filter id="filter0_d_79_9392" x="12" y="10" width="35.3711" height="52.9766" filterUnits="userSpaceOnUse" color-interpolation-filters="sRGB">
<feFlood flood-opacity="0" result="BackgroundImageFix"/>
<feColorMatrix in="SourceAlpha" type="matrix" values="0 0 0 0 0 0 0 0 0 0 0 0 0 0 0 0 0 0 127 0" result="hardAlpha"/>
<feOffset dy="8"/>
<feGaussianBlur stdDeviation="2"/>
<feComposite in2="hardAlpha" operator="out"/>
<feColorMatrix type="matrix" values="0 0 0 0 0 0 0 0 0 0 0 0 0 0 0 0 0 0 0.25 0"/>
<feBlend mode="normal" in2="BackgroundImageFix" result="effect1_dropShadow_79_9392"/>
<feBlend mode="normal" in="SourceGraphic" in2="effect1_dropShadow_79_9392" result="shape"/>
</filter>
<linearGradient id="paint0_linear_79_9392" x1="32.0171" y1="-3.97266" x2="32.0171" y2="47.4711" gradientUnits="userSpaceOnUse">
<stop stop-color="#7FED7D"/>
<stop offset="1" stop-color="#2ED058"/>
</linearGradient>
<linearGradient id="paint1_linear_79_9392" x1="23.9161" y1="-6" x2="23.9161" y2="30.5912" gradientUnits="userSpaceOnUse">
<stop stop-color="#318DF8"/>
<stop offset="1" stop-color="#4081FA"/>
</linearGradient>
<clipPath id="clip0_79_9392">
<rect x="40.6589" y="-3.97461" width="25.9244" height="27.6797" rx="12" fill="white"/>
</clipPath>
</defs>
</svg>
